<svg xmlns="http://www.w3.org/2000/svg" xmlns:xlink="http://www.w3.org/1999/xlink" version="1.1" id="Layer_1" x="0px" y="0px" width="100px" height="100px" viewBox="0 0 100 100" enable-background="new 0 0 100 100" xml:space="preserve">
<path fill="#ffffff" d="M0,50c0,27.569,22.429,50,50.001,50C77.568,100,100,77.568,100,50c0-27.57-22.432-50-49.999-50     C22.429,0,0,22.43,0,50z M94.231,50c0,24.389-19.841,44.233-44.23,44.233C25.612,94.232,5.769,74.389,5.769,50     S25.612,5.769,50.001,5.769C74.391,5.769,94.231,25.61,94.231,50z"/>
<path fill="#ffffff" d="M24.502,55.217c-1.126,1.127-1.126,2.951,0,4.078c1.127,1.127,2.952,1.127,4.079,0l21.42-21.417     l21.415,21.417c1.127,1.127,2.952,1.127,4.079,0c0.563-0.562,0.846-1.301,0.846-2.039s-0.282-1.477-0.846-2.039L52.041,31.76     c-1.127-1.127-2.952-1.127-4.079,0L24.502,55.217z"/>
</svg>