<?xml version="1.0" encoding="utf-8"?>
<!-- Generator: Adobe Illustrator 15.1.0, SVG Export Plug-In . SVG Version: 6.00 Build 0)  -->
<!DOCTYPE svg PUBLIC "-//W3C//DTD SVG 1.1//EN" "http://www.w3.org/Graphics/SVG/1.1/DTD/svg11.dtd">
<svg version="1.1" id="Layer_1" xmlns="http://www.w3.org/2000/svg" xmlns:xlink="http://www.w3.org/1999/xlink" x="0px" y="0px"
	 width="63.03px" height="100px" viewBox="-17.387 28.432 63.03 100" enable-background="new -17.387 28.432 63.03 100"
	 xml:space="preserve">
<g>
	<path fill="#231F20" d="M14.761,34.333c0,0,0.115-0.792-0.202-0.792l-0.252-4.714c0,0,0.288-0.396-0.18-0.396
		s-0.115,0.396-0.115,0.396l-0.316,4.714c-0.317,0-0.202,0.792-0.202,0.792"/>
	<path fill="#231F20" d="M30.573,106.82c-0.792-1.151-0.475-4.081-0.475-4.081v-2.411h-2.72l-5.441-14.235l0.626-4.231l-0.208-0.633
		l-1.728-0.734c-2.353-6.017-4.915-39.554-4.915-39.554s0.655-1,1.108-1.094l0.094-2.85l-0.684-0.647c0,0,0.403-2.26-2.094-2.26
		c0,0-2.382-0.173-2.109,2.26l-0.684,0.647l0.094,2.85c0,0,0.36,0.015,1.115,1.094c0,0-2.591,34.357-4.922,39.554l-1.728,0.734
		l-0.208,0.633l0.626,4.231l-5.441,14.235h-2.72v2.591c0,0,0.425,3.333-1.13,4.858l-14.416,20.654h12.256
		c0,0,4.117-18.258,19.259-18.258c0,0,13.717-1.137,19.259,18.258h12.256C45.643,128.432,31.357,107.972,30.573,106.82z
		 M8.457,99.781l3.224-12.875h4.894l3.217,12.875H8.457z"/>
</g>
<g id="Layer_2">
</g>
</svg>
