<svg xmlns="http://www.w3.org/2000/svg" xmlns:xlink="http://www.w3.org/1999/xlink" version="1.1" id="Layer_1" x="0px" y="0px" width="100px" height="75.445px" viewBox="0 0 100 75.445" enable-background="new 0 0 100 75.445" xml:space="preserve">
<g>
	<path d="M69.52,26.196c0.104,1.745,0.206,3.351,0.451,4.746c1.364-1.431,2.551-3.246,3.422-5.235   C72.903,25.636,71.09,25.776,69.52,26.196z"/>
	<path d="M60.898,33.421c0,1.989,1.5,1.92,1.954,1.884c1.081-0.032,2.27-0.522,3.492-1.325c-0.388-1.85-0.631-4.016-0.805-6.388   C62.782,28.953,60.898,31.081,60.898,33.421z"/>
	<path d="M99.763,29.503C101.242,16.194,89.562,3.89,73.682,2.022c-1.374-0.161-2.729-0.244-4.069-0.244   c-14.156,0-26.023,8.791-27.377,20.948C40.757,36.035,52.432,48.34,68.315,50.207c1.363,0.162,2.709,0.24,4.036,0.24   c1.465,0,2.902-0.1,4.308-0.28c5.686,6.187,11.622,7.855,14.942,7.855c2.131,0,3.184-0.688,2.409-1.298   c-4.847-3.849-5.876-7.604-5.569-10.558C94.672,42.441,98.978,36.537,99.763,29.503z M76.682,41.234l-1.654-3.531   c4.155-1.036,6.711-3.013,6.711-6.202c0-1.152-0.388-3.874-4.156-5.096c-1.535,3.49-3.873,6.736-6.597,9.075   c0.14,0.454,1.032,2.051,1.205,2.399l-3.596,2.305c-0.176-0.35-1.064-1.945-1.204-2.363c-1.746,0.977-3.667,1.605-5.623,1.605   c-3.069,0-5.093-1.957-5.093-5.201c0-4.818,3.701-8.623,8.658-10.648c-0.073-1.501-0.073-3.037-0.073-4.643   c-2.617,0.071-5.444,0.141-6.839,0.105l-0.212-4.084c1.606,0.035,4.536,0.035,7.124,0.035c0.067-1.5,0.103-3.245,0.17-4.712   l4.547,0.348c-0.067,0.348-0.182,3.108-0.286,4.225c3.806-0.175,8.586-0.628,12.463-1.466l0.381,4.224   c-3.837,0.697-8.865,1.047-13.052,1.187c-0.036,1.222-0.071,2.409-0.071,3.562c1.465-0.35,3.597-0.559,5.235-0.455   c0.14-0.523,0.245-1.048,0.278-1.57l4.296,1.082c-0.106,0.385-0.211,0.769-0.278,1.153c5.059,1.397,7.293,4.921,7.293,8.831   C86.312,36.185,83.228,39.644,76.682,41.234z"/>
</g>
<g>
	<path d="M39.309,22.324c0.132-1.267,0.725-3.235,0.978-3.988c-2.833-0.803-6.475-1.413-9.623-1.413   c-1.346,0-2.708,0.083-4.089,0.244C10.614,19.036-1.124,31.34,0.361,44.649c0.79,7.035,5.118,12.939,11.38,16.666   c0.308,2.95-0.727,6.707-5.599,10.558c-0.778,0.607,0.281,1.296,2.423,1.296c3.336,0,9.304-1.667,15.016-7.854   c1.413,0.18,2.858,0.277,4.331,0.277c1.334,0,2.687-0.078,4.056-0.238c10.604-1.242,19.286-6.638,24.03-15.483   C45.301,44.531,38.043,34.448,39.309,22.324z M33.68,56.265l-2.15-7.937h-8.053l-2.072,7.937h-5.864l8.522-30.062h7.271   l8.405,30.062H33.68z"/>
	<path d="M27.542,30.972h-0.117c-0.391,1.877-0.899,4.339-1.33,6.099l-1.798,6.88h6.411L28.91,37.11   C28.441,35.233,27.933,32.809,27.542,30.972z"/>
</g>
</svg>