<svg xmlns="http://www.w3.org/2000/svg" xmlns:xlink="http://www.w3.org/1999/xlink" version="1.1" x="0px" y="0px" width="100px" height="100px" viewBox="0 0 100 100" enable-background="new 0 0 100 100" xml:space="preserve">
<g id="Captions">
</g>
<g id="Your_Icon">
	<path d="M55.742,35.655c-0.992-5.629-2.964-12.337-5.375-18.002l-0.01,0.003c-4.926-4.24-15.164-6.03-26.388-4.05   c-11.226,1.975-20.233,7.16-23.413,12.83l-0.092,0.018C0.138,32.596,0.577,39.576,1.57,45.21   c3.974,22.524,20.337,44.409,35.298,41.773C51.824,84.344,59.715,58.183,55.742,35.655z M10.612,46.022   c-0.659,0.237-1.406,0.229-2.087-0.095c-1.372-0.635-1.959-2.261-1.321-3.624c2.508-5.385,8.926-7.718,14.307-5.213   c1.367,0.639,1.957,2.262,1.32,3.628c-0.64,1.367-2.261,1.959-3.625,1.321c-2.657-1.239-5.819-0.082-7.057,2.567   C11.83,45.292,11.268,45.779,10.612,46.022z M49.629,55.249c-6.752,21.42-21.941,24.095-35.609,6.282l0.026-0.005   c-0.013-0.008-0.026-0.013-0.034-0.021c-0.793-0.557-0.987-1.649-0.431-2.446c0.561-0.795,1.648-0.989,2.446-0.433   c1.082,0.764,2.229,1.402,3.403,1.95c4.059,1.886,8.585,2.506,13.081,1.713c4.499-0.794,8.537-2.925,11.704-6.082   c0.918-0.92,1.772-1.913,2.532-2.995c0.562-0.793,1.653-0.987,2.446-0.431c0.798,0.556,0.987,1.648,0.431,2.446   c-0.003,0.008-0.013,0.018-0.021,0.025L49.629,55.249z M49.457,38.709c-1.062,1.066-2.792,1.066-3.857,0   c-2.071-2.07-5.441-2.07-7.506,0c-0.536,0.536-1.235,0.803-1.933,0.803c-0.7-0.005-1.398-0.267-1.934-0.803   c-1.062-1.064-1.062-2.795,0-3.86c4.203-4.198,11.032-4.198,15.229,0C50.526,35.918,50.526,37.645,49.457,38.709z M99.534,26.454   h-0.008c-3.182-5.674-12.184-10.855-23.413-12.835c-8.434-1.489-16.312-0.846-21.8,1.364l0.359,0.836   c2.118,4.967,3.964,10.854,5.129,16.248c2.459,0.978,4.564,2.85,5.768,5.43c0.639,1.369,0.046,2.995-1.32,3.633   c-1.101,0.51-2.355,0.216-3.14-0.621c0.487,5.124,0.438,10.35-0.126,15.422c2.416,0.428,4.823,1.352,7.309,1.79   c6.35,1.118,13.261-0.928,16.634,9.78l-0.026-0.005c0.01,0.013,0.018,0.022,0.026,0.031c0.553,0.794,0.363,1.89-0.432,2.446   c-0.793,0.556-1.888,0.361-2.444-0.432c-0.759-1.087-1.618-2.076-2.533-2.994c-3.17-3.162-8.913-1.757-13.409-2.55   c-2.51-0.44-4.287-0.63-5.935-1.661c-0.587,3.09-1.363,5.134-2.348,7.968c-1.345,3.9-2.998,7.321-4.909,10.229   c2.864,3.439,6.299,5.755,10.217,6.45c14.96,2.636,31.324-19.249,35.296-41.773C99.422,39.576,99.862,32.596,99.534,26.454z    M93.003,43.512c-1.071,1.064-2.796,1.064-3.862,0c-2.074-2.072-5.439-2.072-7.511,0c-0.529,0.534-1.229,0.802-1.929,0.802   c-0.697,0-1.397-0.269-1.928-0.802c-1.069-1.066-1.069-2.795,0-3.857c4.192-4.198,11.026-4.203,15.229-0.005   C94.064,40.716,94.064,42.445,93.003,43.512z"/>
</g>
</svg>