<svg xmlns="http://www.w3.org/2000/svg" xmlns:xlink="http://www.w3.org/1999/xlink" version="1.1" x="0px" y="0px" width="100px" height="100px" viewBox="0 0 100 100" enable-background="new 0 0 100 100" xml:space="preserve">
<g id="Captions">
</g>
<g id="Your_Icon">
	<path d="M89.803,56.948c-6.868,6.801-8.605,4.073-9.09,3.231c-1.044-1.817-1.302-4.735-1.302-4.735   c-1.96-20.932-18.878-36.557-39.214-39.024c-2.935-0.357-5.674-0.679-9.579,0.197c-2.144,0.48-5.319,2.02-6.8,4.04   c22.175,1.302,39.576,15.835,41.154,38.108c0.079,1.114,0.221,3.817-0.789,5.59c-0.909,1.381-1.588,2.962-15.856,3.973   c-2.226,0.157-6.575,0.19-9.359,0.067c-16.766-0.741-30.03-5.656-36.898-8.618c0,0,31.512,28.886,72.987,23.499   C117.713,77.735,89.803,56.948,89.803,56.948z"/>
	<path d="M3.256,57.352c7.856,2.684,21.007,7.176,36.808,7.801c0.703,0.022,1.651,0.084,2.471,0.084   c2.111,0,4.337-0.069,6.088-0.193c9.177-0.65,10.099-1.04,11.089-1.329c1.861-0.557,2.237-2.297,2.147-3.567   c-1.421-20.04-16.669-34.05-38.518-36.496l-3.29-0.188C9.981,29.354,1.007,43.439,1.234,56.665l0.097,0.034   C1.932,56.899,2.574,57.118,3.256,57.352z"/>
	<path d="M88.636,54.174c-0.012-0.246-0.026-0.997-0.044-1.244c-1.116-15.74-13.464-29.207-31.715-32.945   c14.723,5.834,24.19,20.211,25.677,36.09c0,0,0.147,3.225,1.948,1.71c0.003-0.001,0.003-0.001,0.003-0.001   c0.696-0.482,1.594-1.347,2.403-2.043L88.636,54.174z"/>
</g>
</svg>