<svg xmlns="http://www.w3.org/2000/svg" xmlns:xlink="http://www.w3.org/1999/xlink" version="1.1" id="Your_Icon" x="0px" y="0px" width="100px" height="100px" viewBox="0 0 100 100" enable-background="new 0 0 100 100" xml:space="preserve">
<path d="M62.909,10c-4.771,0-9.05,2.15-11.916,5.532C48.126,12.15,43.848,10,39.077,10H0v71.254h38.827  c1.476,3.58,5.027,7.527,12.166,7.527c7.116,0,10.951-3.998,12.666-7.527H100V10H62.909z M62.909,17.407h29.684v50.077H68.37  c-7.259,0-11.426,2.014-13.674,4.879V25.621C54.696,21.091,58.38,17.407,62.909,17.407z M7.407,17.407h31.67  c4.528,0,8.212,3.684,8.212,8.214v46.742c-1.919-2.865-6.241-4.879-13.674-4.879H7.407V17.407z"/>
</svg>