<svg xmlns="http://www.w3.org/2000/svg" xmlns:xlink="http://www.w3.org/1999/xlink" version="1.1" id="Layer_1" x="0px" y="0px" width="100px" height="100px" viewBox="0 0 100 100" enable-background="new 0 0 100 100" xml:space="preserve">
<path d="M31.716,11.832v2.797h-0.027v59.523c-3.111-1.391-6.916-1.955-10.897-1.393c-9.153,1.293-15.768,8.035-14.775,15.064  c0.992,7.027,9.216,11.676,18.369,10.383c8.646-1.221,15.023-7.307,14.867-13.9h0.006V35.628c16.611-4.931,33.46-6.991,42.868-7.816  v36.465c-3.111-1.393-6.917-1.957-10.897-1.395c-9.153,1.293-15.768,8.037-14.775,15.064s9.216,11.678,18.369,10.385  c8.645-1.223,15.023-7.309,14.866-13.902h0.008V27.293V4.753V1.202C52.01-0.73,31.716,11.832,31.716,11.832z"/>
</svg>