<svg xmlns="http://www.w3.org/2000/svg" xmlns:xlink="http://www.w3.org/1999/xlink" version="1.1" id="Your_Icon" x="0px" y="0px" width="100px" height="100px" viewBox="0 0 100 100" enable-background="new 0 0 100 100" xml:space="preserve">
<g>
	<path fill-rule="evenodd" clip-rule="evenodd" d="M70.406,8.411c0.125,0,0.249,0,0.373,0c-0.867,4.687-1.439,9.67-2.434,14.23   c-1.163,0.21-2.895-2.209-4.306-2.995c-7.797,10.04-16.067,19.256-22.845,30.895c-0.765,1.314-2.439,3.746-2.434,5.056   c0.015,3.146,4.656,6.425,6.928,8.237c1.449,1.158,2.618,2.201,4.308,3.37c1.496,1.039,4.05,1.729,3.743,3.745   c-0.526,3.479-4.921-0.036-6.739-1.31c-4.012-2.811-11.921-8.219-11.984-13.855c-0.04-3.627,3.272-8.104,5.244-11.047   c6.587-9.836,13.713-18.524,20.782-27.525c-1.27-1.35-3.111-2.13-4.118-3.745C61.502,11.864,65.939,10.124,70.406,8.411z"/>
	<path fill-rule="evenodd" clip-rule="evenodd" d="M39.137,23.765c1.466-1.592,2.672-3.445,4.119-5.056   c1.061,0.437,1.632,1.364,2.621,1.873c-1.386,1.859-2.8,3.691-4.306,5.43c1.109,1.699,2.699,2.919,4.119,4.306   c-0.578,1.044-1.389,1.856-2.434,2.435c-1.139-1.42-2.607-2.512-3.745-3.933c-0.736,0.583-1.534,1.981-2.622,3.371   c-0.666,0.853-2.154,3.119-2.621,3.183c-1.018,0.139-1.992-0.994-2.621-1.873c1.699-2.421,3.557-4.681,5.43-6.928   c-1.795-1.95-3.667-3.823-5.618-5.617c0.394-1.105,1.514-1.484,2.061-2.434C35.688,19.974,37.124,22.157,39.137,23.765z"/>
	<path fill-rule="evenodd" clip-rule="evenodd" d="M23.034,22.267c-0.878,0.815-1.732,1.545-2.809,2.621   c-0.469,0.468-2.623,2.182-2.622,2.621c0.004,0.739,2.102,1.654,2.622,2.061c1.107,0.867,1.562,1.633,2.621,2.059   c-0.238,1.198-0.996,1.565-1.685,2.622c-1.905-1.465-3.85-2.891-5.618-4.494c-1.514,1.357-2.95,2.793-4.306,4.307   c-0.981-0.516-1.732-1.265-2.246-2.247c1.387-1.233,2.699-2.544,3.931-3.932c-2.08-1.853-4.386-3.478-6.552-5.244   c0.352-1.019,1.229-1.516,1.685-2.434c2.399,1.72,4.667,3.57,6.928,5.43c2.199-1.608,3.917-3.697,5.804-5.618   C21.77,20.536,22.519,21.284,23.034,22.267z"/>
	<path fill-rule="evenodd" clip-rule="evenodd" d="M91.377,22.267c-1.92,1.638-3.512,3.604-5.431,5.242   c0.586,0.494,1.512,1.38,2.621,2.247c0.824,0.644,2.742,1.547,2.81,2.061c0.12,0.934-0.3,1.751-1.873,2.434   c-1.09-0.858-1.662-1.341-2.809-2.247c-0.359-0.284-2.291-2.26-2.81-2.247c-1.101,0.029-3.215,4.26-4.306,4.307   c-0.979,0.042-1.737-1.244-2.246-2.06c1.201-1.483,2.731-2.637,3.931-4.119c-2.036-1.896-4.315-3.549-6.552-5.244   c0.435-1.087,1.133-1.807,1.685-2.434c2.457,1.662,4.72,3.519,6.928,5.43c2.199-1.608,3.916-3.697,5.806-5.618   C90.111,20.536,90.86,21.284,91.377,22.267z"/>
	<path fill-rule="evenodd" clip-rule="evenodd" d="M71.528,42.489c0.76,0.317,2.214,1.271,2.248,2.06   c0.052,1.217-5.194,4.341-5.431,5.617c1.664,1.458,3.367,2.875,5.243,4.119c-0.4,0.973-1.226,1.522-1.686,2.434   c-2.083-1.223-3.81-2.807-5.617-4.306c-1.761,1.171-3.044,2.823-4.494,4.306c-0.803-0.865-2.212-1.261-2.246-2.06   c-0.039-0.909,3.741-3.282,4.119-4.118c-2.073-1.859-4.354-3.511-6.553-5.242c0.377-1.058,1.028-1.842,1.873-2.435   c2.185,1.873,4.605,3.508,6.739,5.43C67.738,46.436,69.672,44.502,71.528,42.489z"/>
	<path fill-rule="evenodd" clip-rule="evenodd" d="M67.971,68.142c7.109-1.075,11.522,4.423,11.609,10.297   c0.088,5.929-3.615,10.611-7.677,12.17c-6.464,2.482-12.726-2.572-13.481-8.05C57.463,75.603,62.167,69.018,67.971,68.142z    M67.223,73.384c-6.357,1.093-4.104,14.23,3.933,12.357C77.302,83.014,74.038,72.211,67.223,73.384z"/>
</g>
</svg>