<svg xmlns="http://www.w3.org/2000/svg" xmlns:xlink="http://www.w3.org/1999/xlink" version="1.1" id="Your_Icon" x="0px" y="0px" width="100px" height="100px" viewBox="0 0 100 100" enable-background="new 0 0 100 100" xml:space="preserve">
<path d="M87.504,42.147H52.867V41.98c0-7.628-6.208-13.833-13.836-13.833H14.993c-7.628,0-13.833,6.205-13.833,13.833  c0,5.381,3.084,10.053,7.578,12.339v9.166l7.208-7.669H32.62c1.08,5.135,5.644,9.002,11.096,9.002h5.061l8.051,7.568v-7.568h8.852  l8.051,7.568v-7.568h8.436l8.053,7.568v-7.899c4.943-1.216,8.621-5.691,8.621-11.005C98.84,47.235,93.754,42.147,87.504,42.147z   M14.993,52.148c-5.604,0-10.165-4.56-10.165-10.168c0-5.604,4.561-10.165,10.165-10.165h24.038c5.607,0,10.169,4.561,10.169,10.165  c0,0.057,0,0.11-0.003,0.167c-0.021,1.293-0.284,2.534-0.748,3.667c-1.516,3.714-5.167,6.334-9.418,6.334H14.993z M87.504,61.15  H43.716c-3.415,0-6.315-2.243-7.302-5.334h2.617c6.297,0,11.628-4.23,13.295-10.002h35.178c4.227,0,7.668,3.441,7.668,7.668  C95.172,57.71,91.73,61.15,87.504,61.15z"/>
<g>
	<path d="M35.484,50.161h-3.65l-1.451-3.775h-6.644l-1.372,3.775h-3.56l6.474-16.621h3.549L35.484,50.161z M29.305,43.585   l-2.29-6.167l-2.245,6.167H29.305z"/>
</g>
<path id="text2436" fill="#000000" d="M56.387,58.16l-0.564,1.106l1.234,0.64l0.58-1.104L56.387,58.16z M58.133,57.468l-0.574,1.089  l1.236,0.656l0.594-1.098L58.133,57.468z"/>
<path fill="#000000" d="M59.428,54.729v1.861h-4.895c-0.346,0-0.623-0.14-0.832-0.419c-0.182-0.245-0.322-0.608-0.42-1.091  c-0.09-0.482-0.16-1.077-0.213-1.784c-0.031-0.575-0.063-1.165-0.1-1.77c-0.031-0.604-0.072-1.062-0.129-1.372  c-0.051-0.315-0.121-0.573-0.213-0.771c-0.111-0.244-0.268-0.458-0.465-0.641l0.938-1.479c0.197,0.611,0.338,1.34,0.42,2.189  c0.051,0.528,0.1,1.78,0.152,3.751c0.09,0.904,0.223,1.483,0.396,1.738c0.141,0.214,0.297,0.319,0.465,0.319h4.338  c0-0.6-0.072-1.057-0.213-1.372c-0.098-0.219-0.336-0.533-0.717-0.945l0.594-1.242c0.367,0.461,0.596,0.824,0.686,1.082  C59.359,53.177,59.428,53.824,59.428,54.729z"/>
<path fill="#000000" d="M72.896,50.658c-0.777-0.747-1.924-1.144-3.432-1.191c0.068-0.813,0.576-1.219,1.52-1.219v-0.293h-4.559  v0.293c0.949,0,1.457,0.406,1.52,1.219c-1.367,0.058-2.475,0.429-3.324,1.112c-0.85,0.683-1.275,1.598-1.275,2.742  c0,1.071,0.418,1.982,1.256,2.731c0.836,0.75,1.951,1.123,3.344,1.123c-0.068,0.813-0.574,1.219-1.52,1.219v0.293h4.559v-0.293  c-0.473,0-0.834-0.101-1.088-0.304s-0.396-0.508-0.432-0.915c1.398,0,2.516-0.373,3.348-1.123c0.834-0.749,1.25-1.66,1.25-2.731  C74.063,52.291,73.674,51.404,72.896,50.658z M67.945,56.74c-1.926-0.11-2.889-1.206-2.889-3.285c0-1.297,0.256-2.201,0.768-2.71  s1.219-0.79,2.121-0.843V56.74z M71.566,55.933c-0.531,0.501-1.23,0.771-2.102,0.808v-6.839c1.932,0.111,2.896,1.208,2.896,3.293  C72.361,54.519,72.098,55.431,71.566,55.933z"/>
<g>
	<path d="M84.346,56.946h-2.58v2.236h-0.834v-2.236h-2.564v-0.783h2.564v-1.063h-1.945v-4.286h1.945v-1.112h-2.426v-0.771h2.426   v-1.479l1.076,0.076c-0.014,0.088-0.076,0.152-0.242,0.165v1.239h2.518v0.771h-2.518v1.112h2.012v4.286h-2.012v1.063h2.58V56.946z    M79.77,51.511v1.1h3.211v-1.1H79.77z M79.77,53.28v1.126h3.211V53.28H79.77z M89.566,48.072v10.049   c0,1.024-0.48,1.101-2.287,1.076C87.24,58.981,87.115,58.59,87,58.362c0.393,0.013,0.771,0.024,1.049,0.024   c0.607,0,0.684,0,0.684-0.277v-3.11h-3.021c-0.189,1.504-0.695,3.084-1.871,4.235c-0.127-0.164-0.455-0.417-0.656-0.506   c1.668-1.631,1.832-3.969,1.832-5.84v-4.817H89.566z M85.838,52.889c0,0.418-0.014,0.872-0.039,1.327h2.934v-2.301h-2.895V52.889z    M88.732,48.868h-2.895v2.276h2.895V48.868z"/>
</g>
</svg>