<svg xmlns="http://www.w3.org/2000/svg" xmlns:xlink="http://www.w3.org/1999/xlink" version="1.1" id="Layer_1" x="0px" y="0px" width="100px" height="100px" viewBox="0 0 100 100" enable-background="new 0 0 100 100" xml:space="preserve">
<path d="M73.908,33.796c0,13.366-10.629,24.2-23.739,24.2c-13.111,0-23.739-10.834-23.739-24.2  c0-13.364,10.628-24.199,23.739-24.199C63.279,9.597,73.908,20.432,73.908,33.796z M50.169,17.575  c-8.84,0-16.006,7.264-16.006,16.222c0,8.957,7.166,16.221,16.006,16.221c8.839,0,16.004-7.264,16.004-16.221  C66.174,24.839,59.009,17.575,50.169,17.575z"/>
<rect x="31.357" y="69.91" transform="matrix(0.0066 1 -1 0.0066 123.6767 23.1849)" width="37.625" height="7.859"/>
<rect x="32.734" y="69.91" width="35.169" height="7.859"/>
</svg>